<?xml version="1.0" encoding="iso-8859-1"?>
<!-- Generator: Adobe Illustrator 16.0.0, SVG Export Plug-In . SVG Version: 6.00 Build 0)  -->
<!DOCTYPE svg PUBLIC "-//W3C//DTD SVG 1.1//EN" "http://www.w3.org/Graphics/SVG/1.1/DTD/svg11.dtd">
<svg xmlns="http://www.w3.org/2000/svg" xmlns:xlink="http://www.w3.org/1999/xlink" version="1.1" id="Capa_1" x="0px" y="0px" width="512px" height="512px" viewBox="0 0 492.816 492.816" style="enable-background:new 0 0 492.816 492.816;" xml:space="preserve">
<g>
	<g id="Layer_8_5_">
		<path d="M485.014,416.76h-28.62V260.727h9.121c4.303,0,7.796-3.499,7.796-7.802V102.339c0-4.312-3.493-7.802-7.796-7.802H397.89    c-4.304,0-7.803,3.49-7.803,7.802v20.54h-63.712V73.479c0-4.312-3.493-7.808-7.803-7.808h-12.489    c-6.986-28.357-32.545-49.414-63.047-49.414c-30.523,0-56.058,21.057-63.05,49.414h-7.034c-4.315,0-7.799,3.496-7.799,7.808    v49.399h-57.228v-20.54c0-4.312-3.493-7.802-7.796-7.802H32.509c-4.303,0-7.802,3.49-7.802,7.802v150.574    c0,4.303,3.499,7.796,7.802,7.796h7.802v156.032H7.802c-4.315,0-7.802,3.493-7.802,7.803v44.212c0,4.31,3.487,7.803,7.802,7.803    h477.211c4.303,0,7.803-3.493,7.803-7.803v-44.212C492.816,420.246,489.316,416.76,485.014,416.76z M115.579,383.115    c0,3.369-2.716,6.088-6.088,6.088H82.145c-3.363,0-6.083-2.719-6.083-6.088v-94.212c0-3.363,2.719-6.088,6.083-6.088h27.346    c3.372,0,6.088,2.725,6.088,6.088V383.115z M115.579,259.604c0,3.346-2.716,6.064-6.088,6.064H82.145    c-3.363,0-6.083-2.719-6.083-6.064v-94.235c0-3.363,2.719-6.082,6.083-6.082h27.346c3.372,0,6.088,2.719,6.088,6.082V259.604z     M177.894,383.115c0,3.369-2.725,6.088-6.091,6.088H144.45c-3.357,0-6.082-2.719-6.082-6.088v-94.212    c0-3.363,2.725-6.088,6.082-6.088h27.352c3.366,0,6.091,2.725,6.091,6.088V383.115z M177.894,259.604    c0,3.346-2.725,6.064-6.091,6.064H144.45c-3.357,0-6.082-2.719-6.082-6.064v-94.235c0-3.363,2.725-6.082,6.082-6.082h27.352    c3.366,0,6.091,2.719,6.091,6.082V259.604z M299.073,381.638c0,4.326-3.499,7.802-7.809,7.802h-88.41    c-4.312,0-7.808-3.476-7.808-7.802V167.095c0-4.31,3.497-7.803,7.808-7.803h88.41c4.31,0,7.809,3.493,7.809,7.803V381.638z     M359.387,383.115c0,3.369-2.726,6.088-6.076,6.088h-27.367c-3.352,0-6.064-2.719-6.064-6.088v-94.212    c0-3.363,2.713-6.088,6.064-6.088h27.367c3.351,0,6.076,2.725,6.076,6.088V383.115z M359.387,259.604    c0,3.346-2.726,6.064-6.076,6.064h-27.367c-3.352,0-6.064-2.719-6.064-6.064v-94.235c0-3.363,2.713-6.082,6.064-6.082h27.367    c3.351,0,6.076,2.719,6.076,6.082V259.604z M421.691,383.115c0,3.369-2.713,6.088-6.07,6.088h-27.366    c-3.357,0-6.076-2.719-6.076-6.088v-94.212c0-3.363,2.719-6.088,6.076-6.088h27.366c3.357,0,6.07,2.725,6.07,6.088V383.115z     M421.691,259.604c0,3.346-2.713,6.064-6.07,6.064h-27.366c-3.357,0-6.076-2.719-6.076-6.064v-94.235    c0-3.363,2.719-6.082,6.076-6.082h27.366c3.357,0,6.07,2.719,6.07,6.082V259.604z" fill="#d90077"/>
	</g>
</g>
<g>
</g>
<g>
</g>
<g>
</g>
<g>
</g>
<g>
</g>
<g>
</g>
<g>
</g>
<g>
</g>
<g>
</g>
<g>
</g>
<g>
</g>
<g>
</g>
<g>
</g>
<g>
</g>
<g>
</g>
</svg>
