<svg xmlns:xlink="http://www.w3.org/1999/xlink" version="1.1" style="font-family:'lucida grande', 'lucida sans unicode', arial, helvetica, sans-serif;font-size:12px;" xmlns="http://www.w3.org/2000/svg" width="1903" height="550"><desc>Created with Highcharts 4.2.5</desc><defs><clipPath id="highcharts-5"><rect x="0" y="0" width="1787" height="439"></rect></clipPath></defs><rect x="0" y="0" width="1903" height="550" fill="#FFFFFF" class=" highcharts-background"></rect><g class="highcharts-grid"></g><g class="highcharts-grid"><path fill="none" d="M 91 510.5 L 1878 510.5" stroke="#D8D8D8" stroke-width="1" opacity="1"></path><path fill="none" d="M 91 447.5 L 1878 447.5" stroke="#D8D8D8" stroke-width="1" opacity="1"></path><path fill="none" d="M 91 385.5 L 1878 385.5" stroke="#D8D8D8" stroke-width="1" opacity="1"></path><path fill="none" d="M 91 322.5 L 1878 322.5" stroke="#D8D8D8" stroke-width="1" opacity="1"></path><path fill="none" d="M 91 259.5 L 1878 259.5" stroke="#D8D8D8" stroke-width="1" opacity="1"></path><path fill="none" d="M 91 196.5 L 1878 196.5" stroke="#D8D8D8" stroke-width="1" opacity="1"></path><path fill="none" d="M 91 134.5 L 1878 134.5" stroke="#D8D8D8" stroke-width="1" opacity="1"></path><path fill="none" d="M 91 70.5 L 1878 70.5" stroke="#D8D8D8" stroke-width="1" opacity="1"></path></g><g class="highcharts-axis"><path fill="none" d="M 143.5 510 L 143.5 520" stroke="#C0D0E0" stroke-width="1" opacity="1"></path><path fill="none" d="M 210.5 510 L 210.5 520" stroke="#C0D0E0" stroke-width="1" opacity="1"></path><path fill="none" d="M 278.5 510 L 278.5 520" stroke="#C0D0E0" stroke-width="1" opacity="1"></path><path fill="none" d="M 345.5 510 L 345.5 520" stroke="#C0D0E0" stroke-width="1" opacity="1"></path><path fill="none" d="M 413.5 510 L 413.5 520" stroke="#C0D0E0" stroke-width="1" opacity="1"></path><path fill="none" d="M 481.5 510 L 481.5 520" stroke="#C0D0E0" stroke-width="1" opacity="1"></path><path fill="none" d="M 548.5 510 L 548.5 520" stroke="#C0D0E0" stroke-width="1" opacity="1"></path><path fill="none" d="M 616.5 510 L 616.5 520" stroke="#C0D0E0" stroke-width="1" opacity="1"></path><path fill="none" d="M 683.5 510 L 683.5 520" stroke="#C0D0E0" stroke-width="1" opacity="1"></path><path fill="none" d="M 751.5 510 L 751.5 520" stroke="#C0D0E0" stroke-width="1" opacity="1"></path><path fill="none" d="M 819.5 510 L 819.5 520" stroke="#C0D0E0" stroke-width="1" opacity="1"></path><path fill="none" d="M 886.5 510 L 886.5 520" stroke="#C0D0E0" stroke-width="1" opacity="1"></path><path fill="none" d="M 954.5 510 L 954.5 520" stroke="#C0D0E0" stroke-width="1" opacity="1"></path><path fill="none" d="M 1021.5 510 L 1021.5 520" stroke="#C0D0E0" stroke-width="1" opacity="1"></path><path fill="none" d="M 1089.5 510 L 1089.5 520" stroke="#C0D0E0" stroke-width="1" opacity="1"></path><path fill="none" d="M 1156.5 510 L 1156.5 520" stroke="#C0D0E0" stroke-width="1" opacity="1"></path><path fill="none" d="M 1224.5 510 L 1224.5 520" stroke="#C0D0E0" stroke-width="1" opacity="1"></path><path fill="none" d="M 1291.5 510 L 1291.5 520" stroke="#C0D0E0" stroke-width="1" opacity="1"></path><path fill="none" d="M 1359.5 510 L 1359.5 520" stroke="#C0D0E0" stroke-width="1" opacity="1"></path><path fill="none" d="M 1427.5 510 L 1427.5 520" stroke="#C0D0E0" stroke-width="1" opacity="1"></path><path fill="none" d="M 1494.5 510 L 1494.5 520" stroke="#C0D0E0" stroke-width="1" opacity="1"></path><path fill="none" d="M 1562.5 510 L 1562.5 520" stroke="#C0D0E0" stroke-width="1" opacity="1"></path><path fill="none" d="M 1629.5 510 L 1629.5 520" stroke="#C0D0E0" stroke-width="1" opacity="1"></path><path fill="none" d="M 1697.5 510 L 1697.5 520" stroke="#C0D0E0" stroke-width="1" opacity="1"></path><path fill="none" d="M 1764.5 510 L 1764.5 520" stroke="#C0D0E0" stroke-width="1" opacity="1"></path><path fill="none" d="M 1832.5 510 L 1832.5 520" stroke="#C0D0E0" stroke-width="1" opacity="1"></path><path fill="none" d="M 91 510.5 L 1878 510.5" stroke="#C0D0E0" stroke-width="1"></path></g><g class="highcharts-axis"><text x="27.703125" text-anchor="middle" transform="translate(0,0) rotate(270 27.703125 290.5)" class=" highcharts-yaxis-title" style="color:#707070;fill:#707070;" y="290.5">Minutes</text></g><g class="highcharts-series-group"><g class="highcharts-series highcharts-series-0" transform="translate(91,71) scale(1 1)" clip-path="url(#highcharts-5)"><path fill="none" d="M 17.519607843137 315.9545714285714 L 22.345946091935 279.8311428571429 L 27.172284340734 337.2774285714286 L 31.998622589532 316.95799999999997 L 36.82496083833 329.50085714285717 L 41.651299087128 336.02314285714283 L 46.477637335926 348.0642857142857 L 51.303975584724 340.7894285714286 L 56.130313833522 306.54742857142855 L 60.956652082321 296.51314285714284 L 65.782990331119 336.7757142857143 L 70.609328579917 325.4871428571429 L 75.435666828715 346.6845714285714 L 80.262005077513 353.5831428571429 L 85.088343326311 350.1965714285714 L 89.914681575109 330.128 L 94.741019823908 346.18285714285713 L 99.567358072706 315.0765714285714 L 104.3936963215 326.616 L 109.2200345703 330.00257142857146 L 114.0463728191 347.56257142857146 L 118.8727110679 347.0608571428571 L 123.6990493167 338.908 L 128.52538756549 331.75857142857143 L 133.35172581429 338.5317142857143 L 138.17806406309 351.7017142857143 L 143.00440231189 308.80514285714287 L 147.83074056069 363.36657142857143 L 152.65707880949 314.07314285714284 L 157.48341705828 328.4974285714286 L 162.30975530708 336.7757142857143 L 167.13609355588 339.15885714285713 L 171.96243180468 321.5988571428571 L 176.78877005348 348.56600000000003 L 181.61510830227 345.80657142857143 L 186.44144655107 353.3322857142857 L 191.26778479987 340.4131428571429 L 196.09412304867 347.0608571428571 L 200.92046129747 337.52828571428574 L 205.74679954626 328.62285714285713 L 210.57313779506 332.3857142857143 L 215.39947604386 342.42 L 220.22581429266 301.5302857142857 L 225.05215254146 335.1451428571429 L 229.87849079026 354.96285714285716 L 234.70482903905 319.2157142857143 L 239.53116728785 315.0765714285714 L 244.35750553665 351.2 L 249.18384378545 362.99028571428573 L 254.01018203425 351.82714285714286 L 258.83652028304 349.5694285714286 L 263.66285853184 325.4871428571429 L 268.48919678064 321.8497142857143 L 273.31553502944 322.6022857142857 L 278.14187327824 342.67085714285713 L 282.96821152704 329.1245714285714 L 287.79454977583 329.1245714285714 L 292.62088802463 323.4802857142857 L 297.44722627343 336.02314285714283 L 302.27356452223 332.8874285714286 L 307.09990277103 330.50428571428574 L 311.92624101982 359.47828571428573 L 316.75257926862 349.19314285714285 L 321.57891751742 297.8928571428571 L 326.40525576622 301.5302857142857 L 331.23159401502 319.71742857142857 L 336.05793226381 312.81885714285715 L 340.88427051261 310.6865714285714 L 345.71060876141 310.93742857142854 L 350.53694701021 335.1451428571429 L 355.36328525901 297.7674285714286 L 360.18962350781 324.7345714285714 L 365.0159617566 310.4357142857143 L 369.8423000054 270.8002857142857 L 374.6686382542 354.96285714285716 L 379.494976503 339.9114285714286 L 384.3213147518 322.6022857142857 L 389.14765300059 324.48371428571426 L 393.97399124939 286.6042857142857 L 398.80032949819 189.64800000000002 L 403.62666774699 282.9668571428572 L 408.45300599579 336.274 L 413.27934424458 339.15885714285713 L 418.10568249338 329.25 L 422.93202074218 277.32257142857145 L 427.75835899098 291.37057142857145 L 432.58469723978 326.36514285714287 L 437.41103548858 292.374 L 442.23737373737 282.2142857142857 L 447.06371198617 329.1245714285714 L 451.89005023497 300.5268571428571 L 456.71638848377 294.38085714285717 L 461.54272673257 286.7297142857143 L 466.36906498136 322.3514285714286 L 471.19540323016 295.13342857142857 L 476.02174147896 351.7017142857143 L 480.84807972776 357.9731428571429 L 485.67441797656 334.51800000000003 L 490.50075622536 291.99771428571427 L 495.32709447415 337.6537142857143 L 500.15343272295 313.57142857142856 L 504.97977097175 316.95799999999997 L 509.80610922055 326.36514285714287 L 514.63244746935 294.75714285714287 L 519.45878571814 299.14714285714285 L 524.28512396694 222.00857142857143 L 529.11146221574 205.452 L 533.93780046454 184.38 L 538.76413871334 197.29914285714287 L 543.59047696213 276.4445714285714 L 548.41681521093 266.5357142857143 L 553.24315345973 280.33285714285716 L 558.06949170853 316.58171428571427 L 562.89582995733 317.96142857142854 L 567.72216820613 207.58428571428573 L 572.54850645492 325.738 L 577.37484470372 72.12142857142857 L 582.20118295252 333.51457142857146 L 587.02752120132 266.034 L 591.85385945012 322.226 L 596.68019769891 281.838 L 601.50653594771 325.3617142857143 L 606.33287419651 329.1245714285714 L 611.15921244531 284.9737142857143 L 615.98555069411 278.45142857142855 L 620.8118889429 362.61400000000003 L 625.6382271917 256.25057142857145 L 630.4645654405 330.00257142857146 L 635.2909036893 317.58514285714284 L 640.1172419381 252.11142857142858 L 644.9435801869 225.52057142857143 L 649.76991843569 249.72828571428573 L 654.59625668449 315.7037142857143 L 659.42259493329 265.4068571428571 L 664.24893318209 304.666 L 669.07527143089 328.8737142857143 L 673.90160967968 331.38228571428573 L 678.72794792848 278.82771428571425 L 683.55428617728 234.30057142857143 L 688.38062442608 309.934 L 693.20696267488 269.0442857142857 L 698.03330092368 275.692 L 702.85963917247 342.9217142857143 L 707.68597742127 256.62685714285715 L 712.51231567007 332.3857142857143 L 717.33865391887 285.09914285714285 L 722.16499216767 303.0354285714286 L 726.99133041646 315.9545714285714 L 731.81766866526 284.22114285714287 L 736.64400691406 304.9168571428571 L 741.47034516286 302.15742857142857 L 746.29668341166 295.00800000000004 L 751.12302166045 308.178 L 755.94935990925 355.84085714285715 L 760.77569815805 304.666 L 765.60203640685 304.666 L 770.42837465565 247.47057142857145 L 775.25471290445 332.3857142857143 L 780.08105115324 326.36514285714287 L 784.90738940204 353.3322857142857 L 789.73372765084 351.2 L 794.56006589964 280.96000000000004 L 799.38640414844 249.10114285714286 L 804.21274239723 283.2177142857143 L 809.03908064603 313.32057142857144 L 813.86541889483 302.28285714285715 L 818.69175714363 314.5748571428571 L 823.51809539243 313.94771428571426 L 828.34443364123 257.50485714285713 L 833.17077189002 134.58485714285717 L 837.99711013882 281.46171428571427 L 842.82344838762 310.93742857142854 L 847.64978663642 310.812 L 852.47612488522 226.77485714285712 L 857.30246313401 275.692 L 862.12880138281 308.178 L 866.95513963161 138.9748571428571 L 871.78147788041 270.0477142857143 L 876.60781612921 246.59257142857143 L 881.434154378 232.54457142857143 L 886.2604926268 171.33542857142857 L 891.0868308756 229.91057142857142 L 895.9131691244 209.71657142857143 L 900.7395073732 139.60199999999998 L 905.565845622 275.5665714285715 L 910.39218387079 230.5377142857143 L 915.21852211959 308.178 L 920.04486036839 223.89000000000001 L 924.87119861719 263.7762857142857 L 929.69753686599 322.85314285714287 L 934.52387511478 278.82771428571425 L 939.35021336358 197.29914285714287 L 944.17655161238 293.1265714285714 L 949.00288986118 277.69885714285715 L 953.82922810998 304.0388571428572 L 958.65556635877 294.6317142857143 L 963.48190460757 224.26628571428571 L 968.30824285637 284.9737142857143 L 973.13458110517 236.6837142857143 L 977.96091935397 288.73657142857144 L 982.78725760277 177.2305714285714 L 987.61359585156 305.66942857142857 L 992.43993410036 301.02857142857147 L 997.26627234916 286.4788571428571 L 1002.092610598 281.58714285714285 L 1006.9189488468 258.6337142857143 L 1011.7452870956 147.37857142857143 L 1016.5716253444 188.77 L 1021.3979635932 173.844 L 1026.2243018419 287.106 L 1031.0506400907 264.9051428571429 L 1035.8769783395 263.0237142857143 L 1040.7033165883 266.4102857142857 L 1045.5296548371 273.55971428571434 L 1050.3559930859 312.568 L 1055.1823313347 242.4534285714286 L 1060.0086695835 258.7591428571429 L 1064.8350078323 223.63914285714284 L 1069.6613460811 239.694 L 1074.4876843299 266.1594285714286 L 1079.3140225787 260.26428571428573 L 1084.1403608275 314.8257142857143 L 1088.9666990763 308.178 L 1093.7930373251 331.00600000000003 L 1098.6193755739 289.2382857142857 L 1103.4457138227 309.80857142857144 L 1108.2720520715 272.18 L 1113.0983903203 301.78114285714287 L 1117.9247285691 354.3357142857143 L 1122.7510668179 319.2157142857143 L 1127.5774050667 348.69142857142856 L 1132.4037433155 195.41771428571425 L 1137.2300815643 304.9168571428571 L 1142.0564198131 192.28199999999998 L 1146.8827580619 286.1025714285714 L 1151.7090963107 182.24771428571432 L 1156.5354345595 173.4677142857143 L 1161.3617728083 280.70914285714287 L 1166.1881110571 336.3994285714286 L 1171.0144493059 293.7537142857143 L 1175.8407875547 180.3662857142857 L 1180.6671258035 294.38085714285717 L 1185.4934640523 242.7042857142857 L 1190.3198023011 267.9154285714286 L 1195.1461405499 343.7997142857143 L 1199.9724787987 248.72485714285713 L 1204.7988170475 243.95857142857142 L 1209.6251552963 234.55142857142857 L 1214.4514935451 273.68514285714286 L 1219.2778317939 239.44314285714285 L 1224.1041700427 237.1854285714286 L 1228.9305082915 322.85314285714287 L 1233.7568465403 290.8688571428571 L 1238.5831847891 231.16485714285713 L 1243.4095230379 299.64885714285714 L 1248.2358612867 286.6042857142857 L 1253.0621995355 252.4877142857143 L 1257.8885377843 257.50485714285713 L 1262.7148760331 259.63714285714286 L 1267.5412142819 290.9942857142857 L 1272.3675525307 129.56771428571426 L 1277.1938907795 213.60485714285716 L 1282.0202290283 185.00714285714287 L 1286.846567277 269.6714285714286 L 1291.6729055258 315.3274285714286 L 1296.4992437746 257.12857142857143 L 1301.3255820234 253.99285714285713 L 1306.1519202722 316.95799999999997 L 1310.978258521 206.07914285714287 L 1315.8045967698 291.496 L 1320.6309350186 272.8071428571428 L 1325.4572732674 242.95514285714285 L 1330.2836115162 245.84 L 1335.109949765 260.01342857142856 L 1339.9362880138 305.9202857142857 L 1344.7626262626 220.25257142857143 L 1349.5889645114 265.4068571428571 L 1354.4153027602 200.43485714285714 L 1359.241641009 269.92228571428575 L 1364.0679792578 272.4308571428571 L 1368.8943175066 313.19514285714286 L 1373.7206557554 267.28828571428573 L 1378.5469940042 264.6542857142857 L 1383.373332253 287.4822857142857 L 1388.1996705018 289.9908571428571 L 1393.0260087506 196.672 L 1397.8523469994 310.6865714285714 L 1402.6786852482 296.51314285714284 L 1407.505023497 304.0388571428572 L 1412.3313617458 213.22857142857143 L 1417.1576999946 292.374 L 1421.9840382434 246.3417142857143 L 1426.8103764922 225.77142857142857 L 1431.636714741 316.33085714285716 L 1436.4630529898 304.666 L 1441.2893912386 264.40342857142855 L 1446.1157294874 228.02914285714286 L 1450.9420677362 249.97914285714285 L 1455.768405985 278.9531428571429 L 1460.5947442338 300.6522857142857 L 1465.4210824826 231.16485714285713 L 1470.2474207314 303.53714285714284 L 1475.0737589802 226.77485714285712 L 1479.900097229 196.92285714285714 L 1484.7264354778 225.1442857142857 L 1489.5527737266 243.08057142857143 L 1494.3791119754 237.4362857142857 L 1499.2054502242 245.84 L 1504.031788473 269.6714285714286 L 1508.8581267218 295.63514285714285 L 1513.6844649706 281.58714285714285 L 1518.5108032194 299.398 L 1523.3371414682 242.20257142857145 L 1528.163479717 317.836 L 1532.9898179658 305.9202857142857 L 1537.8161562146 244.962 L 1542.6424944633 247.2197142857143 L 1547.4688327121 186.63771428571428 L 1552.2951709609 288.73657142857144 L 1557.1215092097 265.4068571428571 L 1561.9478474585 255.24714285714285 L 1566.7741857073 310.93742857142854 L 1571.6005239561 302.15742857142857 L 1576.4268622049 188.77 L 1581.2532004537 260.26428571428573 L 1586.0795387025 270.424 L 1590.9058769513 289.9908571428571 L 1595.7322152001 349.8202857142857 L 1600.5585534489 331.5077142857143 L 1605.3848916977 339.5351428571429 L 1610.2112299465 312.44257142857145 L 1615.0375681953 316.95799999999997 L 1619.8639064441 253.74200000000002 L 1624.6902446929 316.70714285714286 L 1629.5165829417 338.28085714285714 L 1634.3429211905 259.3862857142857 L 1639.1692594393 358.60028571428575 L 1643.9955976881 309.934 L 1648.8219359369 297.26571428571424 L 1653.6482741857 261.8948571428572 L 1658.4746124345 305.66942857142857 L 1663.3009506833 191.65485714285717 L 1668.1272889321 338.28085714285714 L 1672.9536271809 271.9291428571429 L 1677.7799654297 272.18 L 1682.6063036785 247.2197142857143 L 1687.4326419273 344.55228571428574 L 1692.2589801761 211.0962857142857 L 1697.0853184249 338.28085714285714 L 1701.9116566737 320.59542857142856 L 1706.7379949225 301.78114285714287 L 1711.5643331713 256.8777142857143 L 1716.3906714201 324.23285714285714 L 1721.2170096689 332.6365714285714 L 1726.0433479177 335.7722857142857 L 1730.8696861665 277.5734285714286 L 1735.6960244153 283.84485714285717 L 1740.5223626641 223.01200000000003 L 1745.3487009129 291.62142857142857 L 1750.1750391617 284.84828571428574 L 1755.0013774105 299.64885714285714 L 1759.8277156593 356.34257142857143 L 1764.6540539081 308.9305714285714 L 1769.4803921569 283.2177142857143" stroke="#039bd3" stroke-width="2" stroke-linejoin="round" stroke-linecap="round"></path></g><g class="highcharts-markers highcharts-series-0" transform="translate(91,71) scale(1 1)" clip-path="none"></g></g><text x="952" text-anchor="middle" class="highcharts-title" style="color:#333333;font-size:18px;fill:#333333;width:1839px;" y="24"><tspan>Median Confirmation Time</tspan></text><text x="952" text-anchor="middle" class="highcharts-subtitle" style="color:#555555;fill:#555555;width:1839px;" y="52"><tspan>source: blockchain.info</tspan></text><g class="highcharts-legend"><g><g></g></g></g><g class="highcharts-axis-labels highcharts-xaxis-labels"><text x="143.71165757395704" style="color:#606060;cursor:default;font-size:11px;fill:#606060;width:65px;text-overflow:clip;" text-anchor="middle" transform="translate(0,0)" y="529" opacity="1"><tspan>15. Aug</tspan></text><text x="211.28039305713102" style="color:#606060;cursor:default;font-size:11px;fill:#606060;width:65px;text-overflow:clip;" text-anchor="middle" transform="translate(0,0)" y="529" opacity="1"><tspan>29. Aug</tspan></text><text x="278.849128540305" style="color:#606060;cursor:default;font-size:11px;fill:#606060;width:65px;text-overflow:clip;" text-anchor="middle" transform="translate(0,0)" y="529" opacity="1"><tspan>12. Sep</tspan></text><text x="346.41786402347896" style="color:#606060;cursor:default;font-size:11px;fill:#606060;width:65px;text-overflow:clip;" text-anchor="middle" transform="translate(0,0)" y="529" opacity="1"><tspan>26. Sep</tspan></text><text x="413.98659950665296" style="color:#606060;cursor:default;font-size:11px;fill:#606060;width:65px;text-overflow:clip;" text-anchor="middle" transform="translate(0,0)" y="529" opacity="1"><tspan>10. Oct</tspan></text><text x="481.555334989827" style="color:#606060;cursor:default;font-size:11px;fill:#606060;width:65px;text-overflow:clip;" text-anchor="middle" transform="translate(0,0)" y="529" opacity="1"><tspan>24. Oct</tspan></text><text x="549.3251679000342" style="color:#606060;cursor:default;font-size:11px;fill:#606060;width:65px;text-overflow:clip;" text-anchor="middle" transform="translate(0,0)" y="529" opacity="1"><tspan>7. Nov</tspan></text><text x="616.8939033832082" style="color:#606060;cursor:default;font-size:11px;fill:#606060;width:65px;text-overflow:clip;" text-anchor="middle" transform="translate(0,0)" y="529" opacity="1"><tspan>21. Nov</tspan></text><text x="684.4626388663821" style="color:#606060;cursor:default;font-size:11px;fill:#606060;width:65px;text-overflow:clip;" text-anchor="middle" transform="translate(0,0)" y="529" opacity="1"><tspan>5. Dec</tspan></text><text x="752.0313743495561" style="color:#606060;cursor:default;font-size:11px;fill:#606060;width:65px;text-overflow:clip;" text-anchor="middle" transform="translate(0,0)" y="529" opacity="1"><tspan>19. Dec</tspan></text><text x="819.6001098327301" style="color:#606060;cursor:default;font-size:11px;fill:#606060;width:65px;text-overflow:clip;" text-anchor="middle" transform="translate(0,0)" y="529" opacity="1"><tspan>2. Jan</tspan></text><text x="887.1688453159042" style="color:#606060;cursor:default;font-size:11px;fill:#606060;width:65px;text-overflow:clip;" text-anchor="middle" transform="translate(0,0)" y="529" opacity="1"><tspan>16. Jan</tspan></text><text x="954.737580799078" style="color:#606060;cursor:default;font-size:11px;fill:#606060;width:65px;text-overflow:clip;" text-anchor="middle" transform="translate(0,0)" y="529" opacity="1"><tspan>30. Jan</tspan></text><text x="1022.306316282252" style="color:#606060;cursor:default;font-size:11px;fill:#606060;width:65px;text-overflow:clip;" text-anchor="middle" transform="translate(0,0)" y="529" opacity="1"><tspan>13. Feb</tspan></text><text x="1089.8750517654262" style="color:#606060;cursor:default;font-size:11px;fill:#606060;width:65px;text-overflow:clip;" text-anchor="middle" transform="translate(0,0)" y="529" opacity="1"><tspan>27. Feb</tspan></text><text x="1157.2426898215667" style="color:#606060;cursor:default;font-size:11px;fill:#606060;width:65px;text-overflow:clip;" text-anchor="middle" transform="translate(0,0)" y="529" opacity="1"><tspan>13. Mar</tspan></text><text x="1224.8114253047409" style="color:#606060;cursor:default;font-size:11px;fill:#606060;width:65px;text-overflow:clip;" text-anchor="middle" transform="translate(0,0)" y="529" opacity="1"><tspan>27. Mar</tspan></text><text x="1292.3801607879147" style="color:#606060;cursor:default;font-size:11px;fill:#606060;width:65px;text-overflow:clip;" text-anchor="middle" transform="translate(0,0)" y="529" opacity="1"><tspan>10. Apr</tspan></text><text x="1359.9488962710886" style="color:#606060;cursor:default;font-size:11px;fill:#606060;width:65px;text-overflow:clip;" text-anchor="middle" transform="translate(0,0)" y="529" opacity="1"><tspan>24. Apr</tspan></text><text x="1427.5176317542628" style="color:#606060;cursor:default;font-size:11px;fill:#606060;width:65px;text-overflow:clip;" text-anchor="middle" transform="translate(0,0)" y="529" opacity="1"><tspan>8. May</tspan></text><text x="1495.0863672374367" style="color:#606060;cursor:default;font-size:11px;fill:#606060;width:65px;text-overflow:clip;" text-anchor="middle" transform="translate(0,0)" y="529" opacity="1"><tspan>22. May</tspan></text><text x="1562.6551027206108" style="color:#606060;cursor:default;font-size:11px;fill:#606060;width:65px;text-overflow:clip;" text-anchor="middle" transform="translate(0,0)" y="529" opacity="1"><tspan>5. Jun</tspan></text><text x="1630.2238382037847" style="color:#606060;cursor:default;font-size:11px;fill:#606060;width:65px;text-overflow:clip;" text-anchor="middle" transform="translate(0,0)" y="529" opacity="1"><tspan>19. Jun</tspan></text><text x="1697.7925736869586" style="color:#606060;cursor:default;font-size:11px;fill:#606060;width:65px;text-overflow:clip;" text-anchor="middle" transform="translate(0,0)" y="529" opacity="1"><tspan>3. Jul</tspan></text><text x="1765.3613091701327" style="color:#606060;cursor:default;font-size:11px;fill:#606060;width:65px;text-overflow:clip;" text-anchor="middle" transform="translate(0,0)" y="529" opacity="1"><tspan>17. Jul</tspan></text><text x="1832.9300446533066" style="color:#606060;cursor:default;font-size:11px;fill:#606060;width:65px;text-overflow:clip;" text-anchor="middle" transform="translate(0,0)" y="529" opacity="1"><tspan>31. Jul</tspan></text></g><g class="highcharts-axis-labels highcharts-yaxis-labels"><text x="0" style="color:#606060;cursor:default;font-size:11px;fill:#606060;width:618px;text-overflow:clip;" text-anchor="end" transform="translate(0,0)" y="-9999">0.0000</text><text x="76" style="color:#606060;cursor:default;font-size:11px;fill:#606060;width:618px;text-overflow:clip;" text-anchor="end" transform="translate(0,0)" y="450" opacity="1">5.0000</text><text x="76" style="color:#606060;cursor:default;font-size:11px;fill:#606060;width:618px;text-overflow:clip;" text-anchor="end" transform="translate(0,0)" y="387" opacity="1">10</text><text x="76" style="color:#606060;cursor:default;font-size:11px;fill:#606060;width:618px;text-overflow:clip;" text-anchor="end" transform="translate(0,0)" y="324" opacity="1">15</text><text x="76" style="color:#606060;cursor:default;font-size:11px;fill:#606060;width:618px;text-overflow:clip;" text-anchor="end" transform="translate(0,0)" y="262" opacity="1">20</text><text x="76" style="color:#606060;cursor:default;font-size:11px;fill:#606060;width:618px;text-overflow:clip;" text-anchor="end" transform="translate(0,0)" y="199" opacity="1">25</text><text x="76" style="color:#606060;cursor:default;font-size:11px;fill:#606060;width:618px;text-overflow:clip;" text-anchor="end" transform="translate(0,0)" y="136" opacity="1">30</text><text x="76" style="color:#606060;cursor:default;font-size:11px;fill:#606060;width:618px;text-overflow:clip;" text-anchor="end" transform="translate(0,0)" y="74" opacity="1">35</text></g><g class="highcharts-tooltip" style="cursor:default;padding:0;pointer-events:none;white-space:nowrap;" transform="translate(0,-9999)"><path fill="none" d="M 3.5 0.5 L 13.5 0.5 C 16.5 0.5 16.5 0.5 16.5 3.5 L 16.5 13.5 C 16.5 16.5 16.5 16.5 13.5 16.5 L 3.5 16.5 C 0.5 16.5 0.5 16.5 0.5 13.5 L 0.5 3.5 C 0.5 0.5 0.5 0.5 3.5 0.5"  stroke="black" stroke-opacity="0.049999999999999996" stroke-width="5" transform="translate(1, 1)"></path><path fill="none" d="M 3.5 0.5 L 13.5 0.5 C 16.5 0.5 16.5 0.5 16.5 3.5 L 16.5 13.5 C 16.5 16.5 16.5 16.5 13.5 16.5 L 3.5 16.5 C 0.5 16.5 0.5 16.5 0.5 13.5 L 0.5 3.5 C 0.5 0.5 0.5 0.5 3.5 0.5"  stroke="black" stroke-opacity="0.09999999999999999" stroke-width="3" transform="translate(1, 1)"></path><path fill="none" d="M 3.5 0.5 L 13.5 0.5 C 16.5 0.5 16.5 0.5 16.5 3.5 L 16.5 13.5 C 16.5 16.5 16.5 16.5 13.5 16.5 L 3.5 16.5 C 0.5 16.5 0.5 16.5 0.5 13.5 L 0.5 3.5 C 0.5 0.5 0.5 0.5 3.5 0.5"  stroke="black" stroke-opacity="0.15" stroke-width="1" transform="translate(1, 1)"></path><path fill="rgb(249, 249, 249)" fill-opacity=" .85" d="M 3.5 0.5 L 13.5 0.5 C 16.5 0.5 16.5 0.5 16.5 3.5 L 16.5 13.5 C 16.5 16.5 16.5 16.5 13.5 16.5 L 3.5 16.5 C 0.5 16.5 0.5 16.5 0.5 13.5 L 0.5 3.5 C 0.5 0.5 0.5 0.5 3.5 0.5"></path><text x="8" style="font-size:12px;color:#333333;fill:#333333;" y="20"></text></g></svg>