<?xml version="1.0" encoding="iso-8859-1"?>
<!-- Generator: Adobe Illustrator 19.0.0, SVG Export Plug-In . SVG Version: 6.00 Build 0)  -->
<svg version="1.1" id="Layer_1" xmlns="http://www.w3.org/2000/svg" xmlns:xlink="http://www.w3.org/1999/xlink" x="0px" y="0px"
	 viewBox="0 0 512 512" style="enable-background:new 0 0 512 512;" xml:space="preserve">
<rect x="58.463" y="148.837" style="fill:#F1F1F2;" width="397.455" height="363.163"/>
<path style="fill:#B90B27;" d="M420.949,0l71.94,94.707v75.468c0,32.707-26.514,59.222-59.222,59.222s-59.222-26.514-59.222-59.222
	c0,32.707-26.514,59.222-59.222,59.222s-59.222-26.514-59.222-59.222c0,32.707-26.514,59.222-59.222,59.222
	s-59.222-26.514-59.222-59.222c0,32.707-26.514,59.222-59.222,59.222s-59.222-26.514-59.222-59.222V94.707L91.053,0H420.949z"/>
<rect x="19.111" y="94.708" style="fill:#8A091F;" width="473.779" height="35.721"/>
<rect x="118.736" y="285.767" style="fill:#3D6C6F;" width="130.977" height="226.233"/>
<rect x="285.434" y="285.767" style="fill:#79D5DE;" width="130.977" height="130.977"/>
<g>
</g>
<g>
</g>
<g>
</g>
<g>
</g>
<g>
</g>
<g>
</g>
<g>
</g>
<g>
</g>
<g>
</g>
<g>
</g>
<g>
</g>
<g>
</g>
<g>
</g>
<g>
</g>
<g>
</g>
</svg>
